<?xml version="1.0" encoding="utf-8"?>
<!-- Generator: Adobe Illustrator 19.0.0, SVG Export Plug-In . SVG Version: 6.00 Build 0)  -->
<svg version="1.1" id="レイヤー_1" xmlns="http://www.w3.org/2000/svg" xmlns:xlink="http://www.w3.org/1999/xlink" x="0px"
	 y="0px" viewBox="0 0 645.1 250" style="enable-background:new 0 0 645.1 250;" xml:space="preserve">
<style type="text/css">
	.st0{fill-rule:evenodd;clip-rule:evenodd;fill:#0E3219;}
	.st1{fill-rule:evenodd;clip-rule:evenodd;fill:#040000;}
	.st2{fill-rule:evenodd;clip-rule:evenodd;fill:#999999;}
	.st3{fill-rule:evenodd;clip-rule:evenodd;fill:#E7211A;}
	.st4{fill:#0E3219;}
</style>
<g>
	<g>
		<polygon class="st0" points="11.4,217.4 0,217.4 0,250 11.3,250 11.3,246.3 4.4,246.3 4.4,220.3 11.4,220.3 		"/>
		<polygon class="st0" points="48.7,242.6 35.3,242.6 35.3,225.5 46.5,225.5 46.5,221.1 17.5,221.1 17.5,225.5 29.4,225.5 
			29.4,242.6 15.3,242.6 15.3,247 48.7,247 		"/>
		<rect x="52.8" y="231.5" class="st0" width="31.9" height="4.4"/>
		<path class="st0" d="M122.1,229.6c1.8-1.2,3.6-2.6,5.2-4.1c1.6-1.5,3.3-3.6,5.2-6.2l-5-1.9c-2.3,3.7-5.7,7-10.2,9.8
			c-4.5,2.8-9.8,5-15.9,6.5l1.5,4.4c5.1-1.3,9.8-3,14-5.2v15.6h5.2V229.6z"/>
		<path class="st0" d="M164,229.2c-2.5,3.4-5.6,6.3-9.2,8.6c-3.6,2.3-7.1,3.9-10.5,5v-23.2h-5.2v27l2.6,2.1
			c5.6-1.3,10.8-3.5,15.5-6.5c4.7-3,8.3-6.5,10.8-10.4L164,229.2z"/>
		<path class="st0" d="M195.4,220.4l-25.8,0v4.4l21.5,0c-0.3,3.9-1,7-2.3,9.5c-1.3,2.5-3.5,4.6-6.7,6.4c-3.2,1.8-7.1,2.9-11.7,3.4
			l1.4,4.4c6.1-0.6,11.1-2.1,15.1-4.6c4-2.5,6.7-5.8,8.1-9.9c1.4-4.2,2.1-7.4,2.1-9.7c0-0.1,0-0.3,0-0.5L195.4,220.4z M197.5,216.6
			l-2.4,1c1.1,2.1,1.9,4,2.4,5.7l2.4-1C199.2,220.4,198.4,218.5,197.5,216.6z M201.9,215.9l-2.3,0.8c0.7,1.3,1.5,3,2.4,5.1l2.4-0.9
			C203.6,219.2,202.8,217.5,201.9,215.9z"/>
		<path class="st0" d="M234.3,227.8c-1.7,2.9-3.3,5.1-4.7,6.6c-1.4,1.5-3.1,2.9-5.2,4.4c-2,1.4-4.4,2.6-7.1,3.5
			c-2.7,0.9-6,1.5-10.1,1.9l1.2,4.4c7.3-0.7,13.4-2.5,18.2-5.4c4.8-2.9,8.7-7.1,11.7-12.6L234.3,227.8z M210.2,219.6l-2.8,3.5
			c4.8,2.4,7.8,4,9.2,4.8c1.3,0.8,2.9,1.7,4.6,2.8l3.2-4.3C218.6,223.3,213.9,221,210.2,219.6z"/>
		<path class="st0" d="M285.2,220.3h-28.9v13.3h5.2v-8.9H280v2.7c0,4.7-0.9,8.2-2.7,10.6c-1.8,2.4-4.2,4-7.1,4.9
			c-3,0.9-6.1,1.5-9.5,1.8l1.2,4.4c3.4-0.3,6.4-0.8,9-1.5c2.6-0.7,4.8-1.7,6.6-3c1.8-1.2,3.3-2.6,4.4-4.3c1.1-1.6,1.9-3.5,2.5-5.7
			c0.6-2.2,0.8-5,0.8-8.5V220.3z"/>
		<path class="st0" d="M309.7,229.6c1.8-1.2,3.6-2.6,5.2-4.1c1.6-1.5,3.3-3.6,5.2-6.2l-5-1.9c-2.3,3.7-5.7,7-10.2,9.8
			c-4.5,2.8-9.8,5-15.9,6.5l1.5,4.4c5.1-1.3,9.8-3,14-5.2v15.6h5.2V229.6z"/>
		<polygon class="st0" points="337.4,217.4 326,217.4 326,220.3 333,220.3 333,246.3 326.1,246.3 326.1,250 337.4,250 		"/>
	</g>
	<g>
		<polygon class="st1" points="10.8,210.7 25.4,210.7 33.8,177.1 42.3,210.7 56.9,210.7 67.5,157.3 53.1,157.3 48.2,185.5 
			41.1,157.3 26.5,157.3 19.4,185.4 14.5,157.3 0.1,157.3 		"/>
		<path class="st1" d="M79.1,187c0.2-1.7,0.7-3,1.6-3.9c1.3-1.4,3-2.1,5.1-2.1c1.9,0,3.4,0.5,4.5,1.4c1.1,0.9,1.8,2.4,2.1,4.6H79.1z
			 M105.7,192.8c0-4.9-0.8-8.9-2.2-11.9c-1.5-3.1-3.7-5.4-6.5-7c-2.9-1.6-6.8-2.4-11.7-2.4c-6.1,0-10.9,1.9-14.3,5.6
			c-3.5,3.7-5.2,8.5-5.2,14.5c0,4.2,0.9,7.9,2.6,11c1.7,3.1,3.9,5.4,6.5,6.8c2.6,1.4,6.2,2.1,10.8,2.1c5.3,0,9.3-0.9,12.1-2.8
			c2.8-1.8,5.2-4.9,7.2-9.1l-13.3-1.5c-0.8,1.2-1.6,2.1-2.3,2.6c-1.2,0.8-2.4,1.1-3.7,1.1c-2,0-3.7-0.8-5-2.4
			c-0.9-1.1-1.5-2.8-1.7-5h26.7V192.8z"/>
		<path class="st1" d="M125.5,183.6c1.1-1.7,2.5-2.5,4.3-2.5c1.5,0,2.7,0.8,3.7,2.4c1,1.6,1.5,4.1,1.5,7.6c0,3.9-0.5,6.7-1.6,8.3
			c-1,1.6-2.3,2.5-3.9,2.5c-1.7,0-3-0.8-4.1-2.5c-1.1-1.7-1.6-4.4-1.6-8.1C123.8,187.8,124.3,185.3,125.5,183.6z M110.5,210.7h12.4
			v-5.1c1.7,2.1,3.3,3.6,4.7,4.4c1.9,1,4,1.5,6.3,1.5c2.7,0,5.1-0.8,7.3-2.4c2.2-1.6,3.9-4,5.2-7.1c1.3-3.2,1.9-6.9,1.9-11.1
			c0-6.3-1.4-11.1-4.1-14.4c-2.7-3.4-6.2-5-10.4-5c-2,0-3.9,0.3-5.5,1c-1.7,0.7-3.2,1.7-4.5,3v-18.1h-13.3V210.7z"/>
	</g>
	<path class="st1" d="M286.3,33.5h-21.5c-3,8.4-8.6,15.7-16.7,22c-8.1,6.3-15.6,10.6-22.6,12.8v23.7c13.1-4.3,24.5-10.9,34.1-19.8
		v99.9h26.7V33.5z"/>
	<path class="st1" d="M359.6,33.5h-21.5c-3,8.4-8.6,15.7-16.7,22c-8.1,6.3-15.6,10.6-22.6,12.8v23.7c13.1-4.3,24.5-10.9,34.1-19.8
		v99.9h26.7V33.5z"/>
	<path class="st1" d="M407.2,172.2c-1.4,5.4-3.4,9.8-5.9,13.3c-2.6,3.5-6.6,5.2-12,5.2c-2.9,0-6.2-0.4-9.8-1.2l1.5,19
		c4.4,1,8.9,1.5,13.5,1.5c4.5,0,8.6-0.5,12.2-1.5c3.6-1,6.6-2.4,9.1-4.1c2.5-1.8,4.7-4.1,6.6-6.9c1.9-2.9,3.9-7,6-12.4l6.2-17
		L467,78.7h-26l-21.1,66.1l-21.1-66.1h-26L407.2,172.2z"/>
	<rect x="468.7" y="150.6" class="st2" width="24.5" height="24.5"/>
	<path class="st1" d="M585.1,102.3c4-4.8,9-7.3,15.1-7.3c5.8,0,10.7,2.5,14.6,7.4c3.9,4.9,5.9,12.5,5.9,22.7
		c0,10.9-1.9,18.8-5.7,23.6c-3.8,4.8-8.6,7.2-14.3,7.2c-6,0-11.1-2.6-15.2-7.8c-4.2-5.2-6.2-13.3-6.2-24.2
		C579.1,114.3,581.1,107.2,585.1,102.3z M554.7,207.7h24.5v-46.9c4.6,5,9,8.5,13.1,10.5c4.2,2,8.8,3.1,14,3.1
		c10.8,0,19.9-4.3,27.5-13c7.6-8.7,11.4-20.8,11.4-36.5c0-15.2-3.7-27.1-11.1-35.6c-7.4-8.5-16.4-12.8-27.1-12.8
		c-6.1,0-11.6,1.5-16.6,4.4c-5,3-9,6.8-11.9,11.4V78.7h-23.7V207.7z"/>
	<circle class="st3" cx="525" cy="52.8" r="19.3"/>
	<path class="st1" d="M512.8,78.7v89.6c0,7.7-0.3,12.3-0.8,13.8c-0.5,1.5-1.6,2.8-3.3,3.9c-1.6,1.1-3.8,1.6-6.3,1.6
		c-0.9,0-1.9-0.1-2.9-0.2c-1-0.1-2.2-0.3-3.4-0.6l-4.1,20.5c3.3,0.8,6.3,1.5,9.2,1.9c2.8,0.4,5.5,0.6,7.9,0.6
		c6.8,0,12.5-1.4,16.9-4.1c4.4-2.8,7.4-6.6,8.9-11.5c1.5-4.9,2.3-13.3,2.3-25.2V78.7H512.8z"/>
	<path class="st4" d="M112.5,0C57.2,0,12.3,44.9,12.3,100.2c0,18.4,5,35.6,13.6,50.5h55.5l3.8-10.4H140l18.2,49.1
		c8.9-4.6,17-10.4,24.1-17.3c18.7-18.2,30.4-43.7,30.4-71.9C212.7,44.9,167.9,0,112.5,0z M93.6,117.3l18.8-51.9l19.1,51.9H93.6z
		 M173,148.1L128.5,33.5H96.9L52.5,148.8c-10.8-13.3-17.2-30.1-17.2-48.6c0-21.4,8.6-40.6,22.6-54.6c14-14,33.2-22.6,54.6-22.6
		c21.4,0,40.6,8.6,54.6,22.6c14,14,22.6,33.2,22.6,54.6C189.7,118.3,183.5,135,173,148.1z"/>
</g>
</svg>
